# xmcd
#
# Track frame offsets:
#	150
#	13938
#	27273
#	44807
#	56822
#	70812
#	89546
#	100198
#	112408
#	124467
#	138031
#	149818
#	162103
#	173696
#	183465
#	196702
#	209650
#	218956
#
# Disc length: 3050 seconds
#
# Revision: 0
# Processed by: cddbd v1.5.2PL0 Copyright (c) Steve Scherf et al.
# Submitted via: audiograbber 1.83.01
#
DISCID=1f0be812
DTITLE=Howlin' Wolf - 3 Classic Albums Plus (2)
DYEAR=1962
DGENRE=Blues
TTITLE0=Riding In The Moonlight 
TTITLE1=Worried About My Baby
TTITLE2=Crying At Daybreak (Crying At Daylight)
TTITLE3=Brown Skin Women 
TTITLE4=Twisting And Turning 
TTITLE5=House Rockin' Boogie
TTITLE6=Keep What You Got
TTITLE7=Dog Me Around 
TTITLE8=Morning At Midnight 
TTITLE9=Back Slide Boogie 
TTITLE10=I've Been Abused 
TTITLE11=Mr. Airplane Man
TTITLE12=You Gonna Wreck My Life 
TTITLE13=The Natchez Burning
TTITLE14=Just Like I Treat You 
TTITLE15=I Ain't Superstitious 
TTITLE16=Mam's Baby 
TTITLE17=Do The Do
EXTD=
EXTT0=
EXTT1=
EXTT2=
EXTT3=
EXTT4=
EXTT5=
EXTT6=
EXTT7=
EXTT8=
EXTT9=
EXTT10=
EXTT11=
EXTT12=
EXTT13=
EXTT14=
EXTT15=
EXTT16=
EXTT17=
PLAYORDER=
